<svg version="1.1" viewBox="0.0 0.0 1920.0 1080.0" fill="none" stroke="none" stroke-linecap="square" stroke-miterlimit="10" xmlns:xlink="http://www.w3.org/1999/xlink" xmlns="http://www.w3.org/2000/svg"><clipPath id="p1.0"><path d="m0 0l1920.0 0l0 1080.0l-1920.0 0l0 -1080.0z" clip-rule="nonzero"/></clipPath><g clip-path="url(#p1.0)"><path fill="#fbe4d4" d="m0 0l1920.0 0l0 1080.0l-1920.0 0z" fill-rule="evenodd"/><path fill="#e38600" d="m507.88406 751.075c-23.29242 80.62311 -261.44128 112.20416 -360.90747 49.516724c-99.46617 -62.687378 -307.48883 -331.09967 -235.88997 -425.64178c71.59885 -94.542145 276.17865 -120.78435 375.64484 -58.096954c99.46619 62.68741 244.44507 353.5989 221.15262 434.22202z" fill-rule="evenodd"/><path fill="#c55a11" d="m1169.8032 45.939354c-2.72937 -83.929985 214.26013 -187.78793 328.32947 -158.96988c114.069214 28.818054 395.05078 219.73354 356.0868 331.8787c-38.96399 112.14517 -225.64124 200.51932 -339.71045 171.70126c-114.069336 -28.818054 -341.97632 -260.6801 -344.7058 -344.61008z" fill-rule="evenodd"/><path fill="#e85100" d="m1359.3118 959.72015c87.628784 -60.32129 485.66174 -144.47498 572.9321 -119.697754c87.270386 24.777222 91.9104 193.00397 -49.30945 268.36078c-141.21973 75.35681 -389.1925 118.343994 -476.4629 93.56677c-87.27051 -24.777222 -134.78845 -181.90857 -47.15979 -242.2298z" fill-rule="evenodd"/></g></svg>