<svg version="1.1" viewBox="0.0 0.0 1920.0 1080.0" fill="none" stroke="none" stroke-linecap="square" stroke-miterlimit="10" xmlns:xlink="http://www.w3.org/1999/xlink" xmlns="http://www.w3.org/2000/svg"><clipPath id="p1.0"><path d="m0 0l1920.0 0l0 1080.0l-1920.0 0l0 -1080.0z" clip-rule="nonzero"/></clipPath><g clip-path="url(#p1.0)"><path fill="#fbe4d4" d="m0 0l1920.0 0l0 1080.0l-1920.0 0z" fill-rule="evenodd"/><path fill="#888888" d="m1359.3118 944.00885c87.628784 -60.321228 485.66174 -144.47491 572.9321 -119.69769c87.270386 24.777222 91.9104 193.00397 -49.30945 268.36072c-141.21973 75.35681 -389.1925 118.343994 -476.4629 93.56677c-87.27051 -24.777222 -134.78845 -181.90857 -47.15979 -242.2298z" fill-rule="evenodd"/><path fill="#b7b7b7" d="m1185.8032 61.939354c-2.72937 -83.929985 214.26013 -187.78792 328.32947 -158.96988c114.069214 28.818054 395.05078 219.73354 356.0868 331.8787c-38.96399 112.14517 -225.64124 200.51932 -339.71045 171.70126c-114.069336 -28.818054 -341.97632 -260.6801 -344.7058 -344.61008z" fill-rule="evenodd"/><path fill="#d9d9d9" d="m507.88406 742.8257c-23.29242 80.62311 -261.44128 112.2041 -360.90747 49.516724c-99.46617 -62.687378 -307.48883 -331.09967 -235.88997 -425.6418c71.59885 -94.542114 276.17865 -120.78433 375.64484 -58.096924c99.46619 62.687378 244.44507 353.59885 221.15262 434.22202z" fill-rule="evenodd"/><defs><linearGradient id="p1.1" gradientUnits="userSpaceOnUse" gradientTransform="matrix(-19.379532961735983 -14.687353780809032 14.687353780809032 -19.379532961735983 0.0 0.0)" spreadMethod="pad" x1="-34.75177176344567" y1="-21.704349613324187" x2="-34.75184259814179" y2="-2.3248166517176587"><stop offset="0.0" stop-color="#c55a11"/><stop offset="0.51" stop-color="#e38600"/><stop offset="1.0" stop-color="#fbe4d4"/></linearGradient></defs><path fill="url(#p1.1)" d="m507.88406 723.096c-23.29242 80.62311 -261.44128 112.20416 -360.90747 49.516724c-99.46617 -62.687378 -307.48883 -331.09967 -235.88997 -425.64178c71.59885 -94.54213 276.17865 -120.78435 375.64484 -58.096954c99.46619 62.68741 244.44507 353.5989 221.15262 434.22202z" fill-rule="evenodd"/><defs><linearGradient id="p1.2" gradientUnits="userSpaceOnUse" gradientTransform="matrix(21.112250346816904 7.317893539127134 -7.317893539127134 21.112250346816904 0.0 0.0)" spreadMethod="pad" x1="50.52289502140444" y1="-27.401927144166184" x2="50.52281793588028" y2="-6.289676797490008"><stop offset="0.0" stop-color="#c55a11"/><stop offset="0.5" stop-color="#e85100"/><stop offset="1.0" stop-color="#fbe4d4"/></linearGradient></defs><path fill="url(#p1.2)" d="m1185.8032 36.61389c-2.72937 -83.92998 214.26013 -187.78792 328.32947 -158.96988c114.069214 28.818054 395.05078 219.73354 356.0868 331.8787c-38.96399 112.14516 -225.64124 200.5193 -339.71045 171.70128c-114.069336 -28.818054 -341.97632 -260.6801 -344.7058 -344.6101z" fill-rule="evenodd"/><defs><linearGradient id="p1.3" gradientUnits="userSpaceOnUse" gradientTransform="matrix(13.19385647787972 24.698255780372392 -24.698255780372392 13.19385647787972 0.0 0.0)" spreadMethod="pad" x1="53.07305184522042" y1="-47.569650530277556" x2="53.07296397015824" y2="-22.871394750061484"><stop offset="0.0" stop-color="#e85100"/><stop offset="0.5" stop-color="#e38600"/><stop offset="1.0" stop-color="#fbe4d4"/></linearGradient></defs><path fill="url(#p1.3)" d="m1359.3118 959.72015c87.628784 -60.32129 485.66174 -144.47498 572.9321 -119.697754c87.270386 24.777222 91.9104 193.00397 -49.30945 268.36078c-141.21973 75.35681 -389.1925 118.343994 -476.4629 93.56677c-87.27051 -24.777222 -134.78845 -181.90857 -47.15979 -242.2298z" fill-rule="evenodd"/></g></svg>